<mxfile host="app.diagrams.net" agent="Mozilla/5.0 (Windows NT 10.0; Win64; x64) AppleWebKit/537.36 (KHTML, like Gecko) Chrome/129.0.0.0 Safari/537.36" version="24.7.17">
  <diagram name="Page-1" id="5q2F64kQ-OIhgLjMVbsF">
    <mxGraphModel dx="1885" dy="672" grid="1" gridSize="10" guides="1" tooltips="1" connect="1" arrows="1" fold="1" page="1" pageScale="1" pageWidth="850" pageHeight="1100" math="0" shadow="0">
      <root>
        <mxCell id="0" />
        <mxCell id="1" parent="0" />
        <mxCell id="skr7FGdh7PQNQHjBpN7W-3" value="" style="edgeStyle=none;curved=1;rounded=0;orthogonalLoop=1;jettySize=auto;html=1;fontSize=12;startSize=8;endSize=8;" parent="1" source="skr7FGdh7PQNQHjBpN7W-1" target="skr7FGdh7PQNQHjBpN7W-2" edge="1">
          <mxGeometry relative="1" as="geometry" />
        </mxCell>
        <mxCell id="1-d0EIgpsUiqSgL-Hz_2-2" value="" style="edgeStyle=none;curved=1;rounded=0;orthogonalLoop=1;jettySize=auto;html=1;fontSize=12;startSize=8;endSize=8;" edge="1" parent="1" source="skr7FGdh7PQNQHjBpN7W-1" target="1-d0EIgpsUiqSgL-Hz_2-1">
          <mxGeometry relative="1" as="geometry" />
        </mxCell>
        <mxCell id="1-d0EIgpsUiqSgL-Hz_2-23" value="" style="edgeStyle=none;curved=1;rounded=0;orthogonalLoop=1;jettySize=auto;html=1;fontSize=12;startSize=8;endSize=8;" edge="1" parent="1" source="skr7FGdh7PQNQHjBpN7W-1" target="1-d0EIgpsUiqSgL-Hz_2-22">
          <mxGeometry relative="1" as="geometry" />
        </mxCell>
        <mxCell id="1-d0EIgpsUiqSgL-Hz_2-62" value="" style="edgeStyle=none;curved=1;rounded=0;orthogonalLoop=1;jettySize=auto;html=1;fontSize=12;startSize=8;endSize=8;" edge="1" parent="1" source="skr7FGdh7PQNQHjBpN7W-1" target="1-d0EIgpsUiqSgL-Hz_2-61">
          <mxGeometry relative="1" as="geometry" />
        </mxCell>
        <mxCell id="skr7FGdh7PQNQHjBpN7W-1" value="&lt;b&gt;DESARROLLO WEB&lt;/b&gt;" style="rounded=0;whiteSpace=wrap;html=1;fillColor=#990000;" parent="1" vertex="1">
          <mxGeometry x="330" y="98.75" width="170" height="42.5" as="geometry" />
        </mxCell>
        <mxCell id="1-d0EIgpsUiqSgL-Hz_2-93" value="" style="edgeStyle=none;curved=1;rounded=0;orthogonalLoop=1;jettySize=auto;html=1;fontSize=12;startSize=8;endSize=8;" edge="1" parent="1" source="1-d0EIgpsUiqSgL-Hz_2-61" target="1-d0EIgpsUiqSgL-Hz_2-92">
          <mxGeometry relative="1" as="geometry" />
        </mxCell>
        <mxCell id="1-d0EIgpsUiqSgL-Hz_2-95" value="" style="edgeStyle=none;curved=1;rounded=0;orthogonalLoop=1;jettySize=auto;html=1;fontSize=12;startSize=8;endSize=8;" edge="1" parent="1" source="1-d0EIgpsUiqSgL-Hz_2-61" target="1-d0EIgpsUiqSgL-Hz_2-94">
          <mxGeometry relative="1" as="geometry" />
        </mxCell>
        <mxCell id="1-d0EIgpsUiqSgL-Hz_2-61" value="&lt;b&gt;AREAS PRINCIPALES&lt;/b&gt;" style="whiteSpace=wrap;html=1;rounded=0;fillColor=#4D9900;" vertex="1" parent="1">
          <mxGeometry x="410" y="310" width="120" height="60" as="geometry" />
        </mxCell>
        <mxCell id="1-d0EIgpsUiqSgL-Hz_2-108" value="" style="edgeStyle=none;curved=1;rounded=0;orthogonalLoop=1;jettySize=auto;html=1;fontSize=12;startSize=8;endSize=8;" edge="1" parent="1" source="1-d0EIgpsUiqSgL-Hz_2-92" target="1-d0EIgpsUiqSgL-Hz_2-107">
          <mxGeometry relative="1" as="geometry" />
        </mxCell>
        <mxCell id="1-d0EIgpsUiqSgL-Hz_2-92" value="&lt;b&gt;FRONTEND&lt;/b&gt;" style="whiteSpace=wrap;html=1;rounded=0;fillColor=#00CC00;" vertex="1" parent="1">
          <mxGeometry x="410" y="405.5" width="120" height="60" as="geometry" />
        </mxCell>
        <mxCell id="1-d0EIgpsUiqSgL-Hz_2-112" value="" style="edgeStyle=none;curved=1;rounded=0;orthogonalLoop=1;jettySize=auto;html=1;fontSize=12;startSize=8;endSize=8;" edge="1" parent="1" source="1-d0EIgpsUiqSgL-Hz_2-94" target="1-d0EIgpsUiqSgL-Hz_2-111">
          <mxGeometry relative="1" as="geometry" />
        </mxCell>
        <mxCell id="1-d0EIgpsUiqSgL-Hz_2-94" value="&lt;b&gt;BACKEND&lt;/b&gt;" style="whiteSpace=wrap;html=1;rounded=0;fillColor=#00CC00;" vertex="1" parent="1">
          <mxGeometry x="570" y="310" width="120" height="60" as="geometry" />
        </mxCell>
        <mxCell id="1-d0EIgpsUiqSgL-Hz_2-68" style="edgeStyle=none;curved=1;rounded=0;orthogonalLoop=1;jettySize=auto;html=1;exitX=0;exitY=0.5;exitDx=0;exitDy=0;entryX=1;entryY=0.5;entryDx=0;entryDy=0;fontSize=12;startSize=8;endSize=8;" edge="1" parent="1" source="1-d0EIgpsUiqSgL-Hz_2-22" target="1-d0EIgpsUiqSgL-Hz_2-24">
          <mxGeometry relative="1" as="geometry" />
        </mxCell>
        <mxCell id="1-d0EIgpsUiqSgL-Hz_2-69" style="edgeStyle=none;curved=1;rounded=0;orthogonalLoop=1;jettySize=auto;html=1;exitX=0;exitY=0.25;exitDx=0;exitDy=0;entryX=1;entryY=0.5;entryDx=0;entryDy=0;fontSize=12;startSize=8;endSize=8;" edge="1" parent="1" source="1-d0EIgpsUiqSgL-Hz_2-22" target="1-d0EIgpsUiqSgL-Hz_2-27">
          <mxGeometry relative="1" as="geometry" />
        </mxCell>
        <mxCell id="1-d0EIgpsUiqSgL-Hz_2-70" style="edgeStyle=none;curved=1;rounded=0;orthogonalLoop=1;jettySize=auto;html=1;exitX=0;exitY=0.75;exitDx=0;exitDy=0;entryX=1;entryY=0.5;entryDx=0;entryDy=0;fontSize=12;startSize=8;endSize=8;" edge="1" parent="1" source="1-d0EIgpsUiqSgL-Hz_2-22" target="1-d0EIgpsUiqSgL-Hz_2-26">
          <mxGeometry relative="1" as="geometry" />
        </mxCell>
        <mxCell id="1-d0EIgpsUiqSgL-Hz_2-22" value="&lt;b&gt;TECNOLOGÍA&lt;/b&gt;" style="whiteSpace=wrap;html=1;rounded=0;fillColor=#999900;" vertex="1" parent="1">
          <mxGeometry x="200" y="370" width="120" height="60" as="geometry" />
        </mxCell>
        <mxCell id="1-d0EIgpsUiqSgL-Hz_2-91" style="edgeStyle=none;curved=1;rounded=0;orthogonalLoop=1;jettySize=auto;html=1;exitX=0.5;exitY=1;exitDx=0;exitDy=0;entryX=1;entryY=0.5;entryDx=0;entryDy=0;fontSize=12;startSize=8;endSize=8;" edge="1" parent="1" source="1-d0EIgpsUiqSgL-Hz_2-22" target="1-d0EIgpsUiqSgL-Hz_2-39">
          <mxGeometry relative="1" as="geometry" />
        </mxCell>
        <mxCell id="1-d0EIgpsUiqSgL-Hz_2-98" value="" style="group" vertex="1" connectable="0" parent="1">
          <mxGeometry x="-150" y="340" width="260" height="145" as="geometry" />
        </mxCell>
        <mxCell id="1-d0EIgpsUiqSgL-Hz_2-24" value="HTML" style="whiteSpace=wrap;html=1;rounded=0;rotation=0;fillColor=#CCCC00;" vertex="1" parent="1-d0EIgpsUiqSgL-Hz_2-98">
          <mxGeometry x="160" y="55" width="100" height="30" as="geometry" />
        </mxCell>
        <mxCell id="1-d0EIgpsUiqSgL-Hz_2-32" value="Estructura" style="whiteSpace=wrap;html=1;rounded=0;rotation=0;fillColor=#FFFF00;" vertex="1" parent="1-d0EIgpsUiqSgL-Hz_2-98">
          <mxGeometry y="55" width="120" height="30" as="geometry" />
        </mxCell>
        <mxCell id="1-d0EIgpsUiqSgL-Hz_2-33" value="" style="edgeStyle=none;curved=1;rounded=0;orthogonalLoop=1;jettySize=auto;html=1;fontSize=12;startSize=8;endSize=8;" edge="1" parent="1-d0EIgpsUiqSgL-Hz_2-98" source="1-d0EIgpsUiqSgL-Hz_2-24" target="1-d0EIgpsUiqSgL-Hz_2-32">
          <mxGeometry relative="1" as="geometry" />
        </mxCell>
        <mxCell id="1-d0EIgpsUiqSgL-Hz_2-27" value="CSS" style="whiteSpace=wrap;html=1;rounded=0;rotation=0;fillColor=#CCCC00;" vertex="1" parent="1-d0EIgpsUiqSgL-Hz_2-98">
          <mxGeometry x="160" y="5" width="100" height="20" as="geometry" />
        </mxCell>
        <mxCell id="1-d0EIgpsUiqSgL-Hz_2-30" value="Estilo y Diseño" style="whiteSpace=wrap;html=1;rounded=0;rotation=0;fillColor=#FFFF00;" vertex="1" parent="1-d0EIgpsUiqSgL-Hz_2-98">
          <mxGeometry width="120" height="30" as="geometry" />
        </mxCell>
        <mxCell id="1-d0EIgpsUiqSgL-Hz_2-31" value="" style="edgeStyle=none;curved=1;rounded=0;orthogonalLoop=1;jettySize=auto;html=1;fontSize=12;startSize=8;endSize=8;" edge="1" parent="1-d0EIgpsUiqSgL-Hz_2-98" source="1-d0EIgpsUiqSgL-Hz_2-27" target="1-d0EIgpsUiqSgL-Hz_2-30">
          <mxGeometry relative="1" as="geometry" />
        </mxCell>
        <mxCell id="1-d0EIgpsUiqSgL-Hz_2-26" value="JavaScript" style="whiteSpace=wrap;html=1;rounded=0;rotation=0;fillColor=#CCCC00;" vertex="1" parent="1-d0EIgpsUiqSgL-Hz_2-98">
          <mxGeometry x="160" y="115" width="100" height="30" as="geometry" />
        </mxCell>
        <mxCell id="1-d0EIgpsUiqSgL-Hz_2-34" value="Interactividad" style="whiteSpace=wrap;html=1;rounded=0;rotation=0;fillColor=#FFFF00;" vertex="1" parent="1-d0EIgpsUiqSgL-Hz_2-98">
          <mxGeometry y="115" width="120" height="30" as="geometry" />
        </mxCell>
        <mxCell id="1-d0EIgpsUiqSgL-Hz_2-35" value="" style="edgeStyle=none;curved=1;rounded=0;orthogonalLoop=1;jettySize=auto;html=1;fontSize=12;startSize=8;endSize=8;" edge="1" parent="1-d0EIgpsUiqSgL-Hz_2-98" source="1-d0EIgpsUiqSgL-Hz_2-26" target="1-d0EIgpsUiqSgL-Hz_2-34">
          <mxGeometry relative="1" as="geometry" />
        </mxCell>
        <mxCell id="1-d0EIgpsUiqSgL-Hz_2-110" value="" style="edgeStyle=none;curved=1;rounded=0;orthogonalLoop=1;jettySize=auto;html=1;fontSize=12;startSize=8;endSize=8;" edge="1" parent="1" source="1-d0EIgpsUiqSgL-Hz_2-107" target="1-d0EIgpsUiqSgL-Hz_2-109">
          <mxGeometry relative="1" as="geometry" />
        </mxCell>
        <mxCell id="1-d0EIgpsUiqSgL-Hz_2-107" value="Interactua con el usuario" style="whiteSpace=wrap;html=1;rounded=0;fillColor=#00FF00;" vertex="1" parent="1">
          <mxGeometry x="410" y="500.5" width="120" height="60" as="geometry" />
        </mxCell>
        <mxCell id="1-d0EIgpsUiqSgL-Hz_2-109" value="Se programa en CSS, HTML y JavaScript" style="whiteSpace=wrap;html=1;rounded=0;fillColor=#33FF33;" vertex="1" parent="1">
          <mxGeometry x="410" y="605" width="120" height="60" as="geometry" />
        </mxCell>
        <mxCell id="1-d0EIgpsUiqSgL-Hz_2-114" value="" style="edgeStyle=none;curved=1;rounded=0;orthogonalLoop=1;jettySize=auto;html=1;fontSize=12;startSize=8;endSize=8;" edge="1" parent="1" source="1-d0EIgpsUiqSgL-Hz_2-111" target="1-d0EIgpsUiqSgL-Hz_2-113">
          <mxGeometry relative="1" as="geometry" />
        </mxCell>
        <mxCell id="1-d0EIgpsUiqSgL-Hz_2-116" value="" style="edgeStyle=none;curved=1;rounded=0;orthogonalLoop=1;jettySize=auto;html=1;fontSize=12;startSize=8;endSize=8;" edge="1" parent="1" source="1-d0EIgpsUiqSgL-Hz_2-111" target="1-d0EIgpsUiqSgL-Hz_2-115">
          <mxGeometry relative="1" as="geometry" />
        </mxCell>
        <mxCell id="1-d0EIgpsUiqSgL-Hz_2-111" value="Servidores y Bases de Datos" style="whiteSpace=wrap;html=1;rounded=0;fillColor=#00FF00;" vertex="1" parent="1">
          <mxGeometry x="730" y="310" width="120" height="60" as="geometry" />
        </mxCell>
        <mxCell id="1-d0EIgpsUiqSgL-Hz_2-118" value="" style="edgeStyle=none;curved=1;rounded=0;orthogonalLoop=1;jettySize=auto;html=1;fontSize=12;startSize=8;endSize=8;" edge="1" parent="1" source="1-d0EIgpsUiqSgL-Hz_2-113" target="1-d0EIgpsUiqSgL-Hz_2-117">
          <mxGeometry relative="1" as="geometry" />
        </mxCell>
        <mxCell id="1-d0EIgpsUiqSgL-Hz_2-113" value="Bases de Datos" style="whiteSpace=wrap;html=1;rounded=0;fillColor=#33FF33;" vertex="1" parent="1">
          <mxGeometry x="730" y="409.5" width="120" height="30.5" as="geometry" />
        </mxCell>
        <mxCell id="1-d0EIgpsUiqSgL-Hz_2-115" value="Se programa en PHP, Ruby, Python, Java, MySQL, MongoDB" style="whiteSpace=wrap;html=1;rounded=0;fillColor=#33FF33;" vertex="1" parent="1">
          <mxGeometry x="890" y="310" width="120" height="60" as="geometry" />
        </mxCell>
        <mxCell id="1-d0EIgpsUiqSgL-Hz_2-117" value="MySQL, PostgreSQL, MongoDB, CouchDB" style="whiteSpace=wrap;html=1;rounded=0;fillColor=#33FF33;" vertex="1" parent="1">
          <mxGeometry x="735" y="470" width="110" height="60" as="geometry" />
        </mxCell>
        <mxCell id="1-d0EIgpsUiqSgL-Hz_2-4" value="" style="edgeStyle=none;curved=1;rounded=0;orthogonalLoop=1;jettySize=auto;html=1;fontSize=12;startSize=8;endSize=8;" edge="1" parent="1" source="1-d0EIgpsUiqSgL-Hz_2-1" target="1-d0EIgpsUiqSgL-Hz_2-3">
          <mxGeometry relative="1" as="geometry" />
        </mxCell>
        <mxCell id="1-d0EIgpsUiqSgL-Hz_2-8" value="" style="edgeStyle=none;curved=1;rounded=0;orthogonalLoop=1;jettySize=auto;html=1;fontSize=12;startSize=8;endSize=8;" edge="1" parent="1" source="1-d0EIgpsUiqSgL-Hz_2-1" target="1-d0EIgpsUiqSgL-Hz_2-7">
          <mxGeometry relative="1" as="geometry" />
        </mxCell>
        <mxCell id="1-d0EIgpsUiqSgL-Hz_2-19" style="edgeStyle=none;curved=1;rounded=0;orthogonalLoop=1;jettySize=auto;html=1;exitX=1;exitY=0.75;exitDx=0;exitDy=0;entryX=0;entryY=0.5;entryDx=0;entryDy=0;fontSize=12;startSize=8;endSize=8;" edge="1" parent="1" source="1-d0EIgpsUiqSgL-Hz_2-1" target="1-d0EIgpsUiqSgL-Hz_2-18">
          <mxGeometry relative="1" as="geometry" />
        </mxCell>
        <mxCell id="1-d0EIgpsUiqSgL-Hz_2-1" value="&lt;b&gt;IMPORTANCIA&amp;nbsp;&lt;/b&gt;" style="whiteSpace=wrap;html=1;rounded=0;fillColor=#4C0099;" vertex="1" parent="1">
          <mxGeometry x="530" y="170" width="120" height="60" as="geometry" />
        </mxCell>
        <mxCell id="1-d0EIgpsUiqSgL-Hz_2-3" value="Accesibilidad" style="whiteSpace=wrap;html=1;rounded=0;fillColor=#7F00FF;" vertex="1" parent="1">
          <mxGeometry x="710" y="115" width="100" height="30" as="geometry" />
        </mxCell>
        <mxCell id="1-d0EIgpsUiqSgL-Hz_2-7" value="Interacción y alcance mundial" style="whiteSpace=wrap;html=1;rounded=0;fillColor=#7F00FF;" vertex="1" parent="1">
          <mxGeometry x="770" y="155" width="140" height="30" as="geometry" />
        </mxCell>
        <mxCell id="1-d0EIgpsUiqSgL-Hz_2-15" value="Oportunidades" style="whiteSpace=wrap;html=1;rounded=0;fillColor=#7F00FF;" vertex="1" parent="1">
          <mxGeometry x="770" y="210" width="140" height="30" as="geometry" />
        </mxCell>
        <mxCell id="1-d0EIgpsUiqSgL-Hz_2-17" style="edgeStyle=none;curved=1;rounded=0;orthogonalLoop=1;jettySize=auto;html=1;exitX=1;exitY=0.5;exitDx=0;exitDy=0;entryX=-0.017;entryY=0.503;entryDx=0;entryDy=0;entryPerimeter=0;fontSize=12;startSize=8;endSize=8;" edge="1" parent="1" source="1-d0EIgpsUiqSgL-Hz_2-1" target="1-d0EIgpsUiqSgL-Hz_2-15">
          <mxGeometry relative="1" as="geometry" />
        </mxCell>
        <mxCell id="1-d0EIgpsUiqSgL-Hz_2-18" value="Innovación" style="whiteSpace=wrap;html=1;rounded=0;fillColor=#7F00FF;" vertex="1" parent="1">
          <mxGeometry x="737.5" y="255" width="140" height="30" as="geometry" />
        </mxCell>
        <mxCell id="1-d0EIgpsUiqSgL-Hz_2-20" value="Creatividad" style="whiteSpace=wrap;html=1;rounded=0;fillColor=#7F00FF;" vertex="1" parent="1">
          <mxGeometry x="590" y="115" width="100" height="30" as="geometry" />
        </mxCell>
        <mxCell id="1-d0EIgpsUiqSgL-Hz_2-21" style="edgeStyle=none;curved=1;rounded=0;orthogonalLoop=1;jettySize=auto;html=1;exitX=0.75;exitY=0;exitDx=0;exitDy=0;entryX=0.509;entryY=1.097;entryDx=0;entryDy=0;entryPerimeter=0;fontSize=12;startSize=8;endSize=8;" edge="1" parent="1" source="1-d0EIgpsUiqSgL-Hz_2-1" target="1-d0EIgpsUiqSgL-Hz_2-20">
          <mxGeometry relative="1" as="geometry" />
        </mxCell>
        <mxCell id="skr7FGdh7PQNQHjBpN7W-5" value="" style="edgeStyle=none;curved=1;rounded=0;orthogonalLoop=1;jettySize=auto;html=1;fontSize=12;startSize=8;endSize=8;" parent="1" source="skr7FGdh7PQNQHjBpN7W-2" target="skr7FGdh7PQNQHjBpN7W-4" edge="1">
          <mxGeometry relative="1" as="geometry" />
        </mxCell>
        <mxCell id="skr7FGdh7PQNQHjBpN7W-2" value="&lt;b&gt;DEFINICIÓN&lt;/b&gt;" style="whiteSpace=wrap;html=1;rounded=0;fillColor=#994C00;" parent="1" vertex="1">
          <mxGeometry x="27.5" y="90" width="120" height="60" as="geometry" />
        </mxCell>
        <mxCell id="skr7FGdh7PQNQHjBpN7W-7" value="" style="edgeStyle=none;curved=1;rounded=0;orthogonalLoop=1;jettySize=auto;html=1;fontSize=12;startSize=8;endSize=8;" parent="1" source="skr7FGdh7PQNQHjBpN7W-4" target="skr7FGdh7PQNQHjBpN7W-6" edge="1">
          <mxGeometry relative="1" as="geometry" />
        </mxCell>
        <mxCell id="skr7FGdh7PQNQHjBpN7W-4" value="Creación y mantenimiento de sitios web" style="whiteSpace=wrap;html=1;rounded=0;fillColor=#CC6600;" parent="1" vertex="1">
          <mxGeometry x="10" y="180" width="155" height="60" as="geometry" />
        </mxCell>
        <mxCell id="skr7FGdh7PQNQHjBpN7W-6" value="-Programación&lt;div&gt;-Diseño&lt;/div&gt;&lt;div&gt;-Contenido&lt;/div&gt;&lt;div&gt;-Seguridad de Red&lt;/div&gt;" style="whiteSpace=wrap;html=1;rounded=0;fillColor=#FF8000;" parent="1" vertex="1">
          <mxGeometry x="122.5" y="260" width="120" height="60" as="geometry" />
        </mxCell>
        <mxCell id="1-d0EIgpsUiqSgL-Hz_2-87" style="edgeStyle=none;curved=1;rounded=0;orthogonalLoop=1;jettySize=auto;html=1;exitX=0;exitY=1;exitDx=0;exitDy=0;entryX=0.5;entryY=0;entryDx=0;entryDy=0;fontSize=12;startSize=8;endSize=8;" edge="1" parent="1" source="1-d0EIgpsUiqSgL-Hz_2-39" target="1-d0EIgpsUiqSgL-Hz_2-43">
          <mxGeometry relative="1" as="geometry" />
        </mxCell>
        <mxCell id="1-d0EIgpsUiqSgL-Hz_2-88" style="edgeStyle=none;curved=1;rounded=0;orthogonalLoop=1;jettySize=auto;html=1;exitX=0.25;exitY=1;exitDx=0;exitDy=0;entryX=0.5;entryY=0;entryDx=0;entryDy=0;fontSize=12;startSize=8;endSize=8;" edge="1" parent="1" source="1-d0EIgpsUiqSgL-Hz_2-39" target="1-d0EIgpsUiqSgL-Hz_2-45">
          <mxGeometry relative="1" as="geometry" />
        </mxCell>
        <mxCell id="1-d0EIgpsUiqSgL-Hz_2-89" style="edgeStyle=none;curved=1;rounded=0;orthogonalLoop=1;jettySize=auto;html=1;exitX=0.75;exitY=1;exitDx=0;exitDy=0;fontSize=12;startSize=8;endSize=8;" edge="1" parent="1" source="1-d0EIgpsUiqSgL-Hz_2-39" target="1-d0EIgpsUiqSgL-Hz_2-46">
          <mxGeometry relative="1" as="geometry" />
        </mxCell>
        <mxCell id="1-d0EIgpsUiqSgL-Hz_2-90" style="edgeStyle=none;curved=1;rounded=0;orthogonalLoop=1;jettySize=auto;html=1;exitX=1;exitY=1;exitDx=0;exitDy=0;entryX=0.5;entryY=0;entryDx=0;entryDy=0;fontSize=12;startSize=8;endSize=8;" edge="1" parent="1" source="1-d0EIgpsUiqSgL-Hz_2-39" target="1-d0EIgpsUiqSgL-Hz_2-47">
          <mxGeometry relative="1" as="geometry" />
        </mxCell>
        <mxCell id="1-d0EIgpsUiqSgL-Hz_2-39" value="&lt;b&gt;HERRAMIENTAS&lt;/b&gt;" style="whiteSpace=wrap;html=1;rounded=0;rotation=0;fillColor=#CCCC00;" vertex="1" parent="1">
          <mxGeometry x="-30" y="515" width="120" height="40" as="geometry" />
        </mxCell>
        <mxCell id="1-d0EIgpsUiqSgL-Hz_2-52" value="" style="edgeStyle=none;curved=1;rounded=0;orthogonalLoop=1;jettySize=auto;html=1;fontSize=12;startSize=8;endSize=8;" edge="1" parent="1" source="1-d0EIgpsUiqSgL-Hz_2-43" target="1-d0EIgpsUiqSgL-Hz_2-51">
          <mxGeometry relative="1" as="geometry" />
        </mxCell>
        <mxCell id="1-d0EIgpsUiqSgL-Hz_2-58" value="" style="edgeStyle=none;curved=1;rounded=0;orthogonalLoop=1;jettySize=auto;html=1;fontSize=12;startSize=8;endSize=8;" edge="1" parent="1" source="1-d0EIgpsUiqSgL-Hz_2-47" target="1-d0EIgpsUiqSgL-Hz_2-57">
          <mxGeometry relative="1" as="geometry" />
        </mxCell>
        <mxCell id="1-d0EIgpsUiqSgL-Hz_2-85" style="edgeStyle=none;curved=1;rounded=0;orthogonalLoop=1;jettySize=auto;html=1;exitX=0.5;exitY=1;exitDx=0;exitDy=0;entryX=0.5;entryY=0;entryDx=0;entryDy=0;fontSize=12;startSize=8;endSize=8;" edge="1" parent="1" source="1-d0EIgpsUiqSgL-Hz_2-45" target="1-d0EIgpsUiqSgL-Hz_2-53">
          <mxGeometry relative="1" as="geometry" />
        </mxCell>
        <mxCell id="1-d0EIgpsUiqSgL-Hz_2-86" style="edgeStyle=none;curved=1;rounded=0;orthogonalLoop=1;jettySize=auto;html=1;exitX=0.5;exitY=1;exitDx=0;exitDy=0;entryX=0.5;entryY=0;entryDx=0;entryDy=0;fontSize=12;startSize=8;endSize=8;" edge="1" parent="1" source="1-d0EIgpsUiqSgL-Hz_2-46" target="1-d0EIgpsUiqSgL-Hz_2-55">
          <mxGeometry relative="1" as="geometry" />
        </mxCell>
        <mxCell id="1-d0EIgpsUiqSgL-Hz_2-51" value="Fima" style="whiteSpace=wrap;html=1;rounded=0;rotation=-360;fillColor=#FFFF33;" vertex="1" parent="1">
          <mxGeometry x="-165" y="678" width="70" height="25" as="geometry" />
        </mxCell>
        <mxCell id="1-d0EIgpsUiqSgL-Hz_2-53" value="GitHub" style="whiteSpace=wrap;html=1;rounded=0;rotation=-360;fillColor=#FFFF33;" vertex="1" parent="1">
          <mxGeometry x="-75" y="678" width="70" height="25" as="geometry" />
        </mxCell>
        <mxCell id="1-d0EIgpsUiqSgL-Hz_2-57" value="Visual Studio Code" style="whiteSpace=wrap;html=1;rounded=0;rotation=-360;fillColor=#FFFF33;" vertex="1" parent="1">
          <mxGeometry x="110" y="675" width="120" height="28" as="geometry" />
        </mxCell>
        <mxCell id="1-d0EIgpsUiqSgL-Hz_2-55" value="Chrome, Firefox, Edge" style="whiteSpace=wrap;html=1;rounded=0;rotation=0;fillColor=#FFFF33;" vertex="1" parent="1">
          <mxGeometry x="10" y="665" width="90" height="45" as="geometry" />
        </mxCell>
        <mxCell id="1-d0EIgpsUiqSgL-Hz_2-43" value="Diseño" style="whiteSpace=wrap;html=1;rounded=0;rotation=-360;fillColor=#FFFF00;" vertex="1" parent="1">
          <mxGeometry x="-170" y="610" width="80" height="20" as="geometry" />
        </mxCell>
        <mxCell id="1-d0EIgpsUiqSgL-Hz_2-45" value="Control de versiones" style="whiteSpace=wrap;html=1;rounded=0;rotation=-360;fillColor=#FFFF00;" vertex="1" parent="1">
          <mxGeometry x="-80" y="604" width="80" height="32" as="geometry" />
        </mxCell>
        <mxCell id="1-d0EIgpsUiqSgL-Hz_2-46" value="Navegadores" style="whiteSpace=wrap;html=1;rounded=0;rotation=-360;fillColor=#FFFF00;" vertex="1" parent="1">
          <mxGeometry x="10" y="610" width="90" height="20" as="geometry" />
        </mxCell>
        <mxCell id="1-d0EIgpsUiqSgL-Hz_2-47" value="Editor de texto" style="whiteSpace=wrap;html=1;rounded=0;rotation=-360;fillColor=#FFFF00;" vertex="1" parent="1">
          <mxGeometry x="125" y="609" width="90" height="22" as="geometry" />
        </mxCell>
      </root>
    </mxGraphModel>
  </diagram>
</mxfile>
